<?xml version="1.0" encoding="utf-8"?>
<?xml-stylesheet type="text/xsl" href="rss1.xsl"?>
<rss version="2.0" xmlns:atom="http://www.w3.org/2005/Atom" xmlns:content="http://purl.org/rss/1.0/modules/content/" xmlns:dc="http://purl.org/dc/elements/1.1/" xmlns:media="http://search.yahoo.com/mrss/">
<channel>
 <title>Getty</title>
 <link>http://www.gettyimg.com/</link>
 <atom:link href="http://www.gettyimg.com/" rel="self" type="application/rss+xml" />

 
                <item>
                <title><![CDATA[【Requests】[REQ AUD] - Matoma - Bittersweet 24bit FLAC]]></title>
                <link><![CDATA[https://sharemania.us/threads/matoma-bittersweet-24bit-flac.227685/]]></link>
                <description><![CDATA[<article>
<blockquote class="messageText SelectQuoteContainer ugc baseHtml">
Hello once again,<br>
<br>
Please can I request the song below in 24bit FLAC?<br>
<br>
<a href="https://www.qobuz.com/gb-en/album/bittersweet-matoma/yr5zcievv42ca" target="_blank" class="externalLink" rel="nofollow">Bittersweet, Matoma - Qobuz</a><br>
<br>
Much appreciated as always<br>
<img src="styles/default/xenforo/smilies/big_smile-48.png" class="mceSmilie" alt=":)" title="Smile    :)">
<div class="messageTextEndMarker">&nbsp;</div>
</blockquote>
</article>]]></description>
                <author><![CDATA[faceoffaith]]></author>
                </item>

                
                <item>
                <title><![CDATA[【Singles (lossy)】Dolby Atmos - Harvey Danger - Flagpole Sitta (Dolby Atmos)]]></title>
                <link><![CDATA[https://sharemania.us/threads/harvey-danger-flagpole-sitta-dolby-atmos.227684/]]></link>
                <description><![CDATA[<article>
<blockquote class="messageText SelectQuoteContainer ugc baseHtml">
<img src="https://i.scdn.co/image/ab67616d0000b273868d99be4de6929eeac899ba" class="bbCodeImage LbImage" alt="[​IMG]" data-url="https://i.scdn.co/image/ab67616d0000b273868d99be4de6929eeac899ba" style=""> <br>
Source: Tidal<br>
Format: .m4a E-AC3 JOC<br>
<div class="bbCodeBlock bbCodeVfcHH HiddenContent">
<div class="attribution type">Hidden Content:</div>
<blockquote>You must reply before you can see the hidden data contained here.</blockquote>
</div>
<div class="messageTextEndMarker">&nbsp;</div>
</blockquote>
</article>]]></description>
                <author><![CDATA[BbbDdd345]]></author>
                </item>

                
                <item>
                <title><![CDATA[【UPSCALED】Paris Hilton - Stars Are Blind (4K-AI-REMASTERED-H.265)]]></title>
                <link><![CDATA[https://sharemania.us/threads/paris-hilton-stars-are-blind-4k-ai-remastered-h-265.227683/]]></link>
                <description><![CDATA[<article>
<blockquote class="messageText SelectQuoteContainer ugc baseHtml">
<div style="text-align: center"><img src="https://i.imgur.com/VopaN9K.png" class="bbCodeImage LbImage" alt="[​IMG]" data-url="https://i.imgur.com/VopaN9K.png" style=""><br>
<img src="https://i.imgur.com/7KMjTpv.png" class="bbCodeImage LbImage" alt="[​IMG]" data-url="https://i.imgur.com/7KMjTpv.png" style=""><br>
<img src="https://i.imgur.com/pfXwSbf.png" class="bbCodeImage LbImage" alt="[​IMG]" data-url="https://i.imgur.com/pfXwSbf.png" style=""><br>
<br>
<div class="bbCodeBlock bbCodeCode">
<div class="type">Code:</div>
<pre>General
Format                                   : MPEG-4
Format profile                           : Base Media / Version 2
Codec ID                                 : mp42 (mp42/iso2/mp41)
File size                                : 736 MiB
Duration                                 : 3 min 54 s
Overall bit rate                         : 26.4 Mb/s
Frame rate                               : 23.976 FPS

Video
ID                                       : 1
Format                                   : HEVC
Format/Info                              : High Efficiency Video Coding
Format profile                           : Main@L5@Main
Codec ID                                 : hvc1
Codec ID/Info                            : High Efficiency Video Coding
Duration                                 : 3 min 54 s
Bit rate                                 : 25.9 Mb/s
Width                                    : 2 880 pixels
Height                                   : 2 160 pixels
Display aspect ratio                     : 4:3
Frame rate mode                          : Variable
Frame rate                               : 23.976 (24000/1001) FPS
Minimum frame rate                       : 23.974 FPS
Maximum frame rate                       : 23.981 FPS
Color space                              : YUV
Chroma subsampling                       : 4:2:0 (Type 0)
Bit depth                                : 8 bits
Bits/(Pixel*Frame)                       : 0.174
Stream size                              : 724 MiB (98%)
Color range                              : Limited
Color primaries                          : BT.709
Transfer characteristics                 : BT.709
Matrix coefficients                      : BT.709
Codec configuration box                  : hvcC

Audio
ID                                       : 2
Format                                   : AAC LC
Format/Info                              : Advanced Audio Codec Low Complexity
Codec ID                                 : mp4a-40-2
Duration                                 : 3 min 54 s
Source duration                          : 3 min 54 s
Bit rate mode                            : Constant
Bit rate                                 : 436 kb/s
Channel(s)                               : 2 channels
Channel layout                           : L R
Sampling rate                            : 48.0 kHz
Frame rate                               : 46.875 FPS (1024 SPF)
Compression mode                         : Lossy
Stream size                              : 12.2 MiB (2%)
Source stream size                       : 12.2 MiB (2%)
Title                                    : Stereo / Stereo</pre>
</div>
<div class="bbCodeBlock bbCodeVfcHH HiddenContent">
<div class="attribution type">Hidden Content:</div>
<blockquote>You must reply before you can see the hidden data contained here.</blockquote>
</div></div>
<div class="messageTextEndMarker">&nbsp;</div>
</blockquote>
</article>]]></description>
                <author><![CDATA[Librious]]></author>
                </item>

                </channel></rss>